<?xml version="1.0" standalone="no"?>
<!DOCTYPE svg PUBLIC "-//W3C//DTD SVG 20010904//EN"
 "http://www.w3.org/TR/2001/REC-SVG-20010904/DTD/svg10.dtd">
<svg version="1.0" xmlns="http://www.w3.org/2000/svg"
 width="202.000000pt" height="202.000000pt" viewBox="0 0 202.000000 202.000000"
 preserveAspectRatio="xMidYMid meet">

<g transform="translate(0.000000,202.000000) scale(0.100000,-0.100000)"
fill="#000000" stroke="none">
<path d="M844 2006 c-230 -44 -406 -138 -560 -298 -129 -135 -210 -282 -256
-464 -32 -127 -32 -341 0 -468 48 -192 129 -334 271 -477 142 -141 286 -223
478 -271 125 -32 341 -32 466 0 192 48 336 130 478 271 141 142 223 286 271
478 32 126 32 341 0 467 -76 304 -288 560 -569 687 -164 75 -413 107 -579 75z
m354 -72 c97 -20 208 -63 291 -111 71 -43 191 -138 191 -153 0 -6 -240 -10
-670 -10 -403 0 -670 4 -670 9 0 16 105 100 189 150 88 53 191 94 291 115 90
20 283 20 378 0z m-580 -366 l317 -3 3 -245 c1 -135 0 -255 -3 -267 -3 -13
-19 -29 -38 -37 -32 -14 -165 -143 -137 -134 8 3 26 8 40 12 23 6 23 5 -7 -20
-31 -25 -38 -26 -160 -27 -113 -2 -133 -5 -173 -25 -92 -48 -129 -101 -110
-158 15 -43 73 -94 108 -94 38 0 116 40 181 94 53 44 55 44 80 28 62 -39 108
-81 162 -150 l59 -73 0 -201 0 -200 -52 7 c-315 39 -600 249 -734 540 -65 141
-79 211 -79 395 0 142 3 176 23 245 29 100 98 242 154 317 43 57 43 57 46 28
l3 -30 317 -2z m1150 4 c57 -76 126 -218 154 -317 20 -69 23 -103 23 -245 0
-141 -3 -176 -23 -243 -107 -373 -418 -645 -789 -692 l-53 -7 0 121 0 122 33
-18 c51 -27 124 -22 181 11 71 41 209 187 261 275 15 25 -128 -82 -175 -130
-80 -84 -122 -77 -230 38 l-70 75 0 224 0 223 33 17 c112 58 243 166 327 271
99 123 126 198 79 224 -63 33 -282 -66 -389 -176 -19 -19 -38 -35 -42 -35 -5
0 -7 57 -6 128 l3 127 313 3 312 2 0 30 c0 17 3 30 8 30 4 0 26 -26 50 -58z
m-360 -199 c9 -59 -98 -181 -220 -251 -111 -63 -108 -62 -108 -6 0 40 9 64 46
127 61 105 146 160 239 154 33 -2 41 -6 43 -24z m-468 -533 l0 -100 -45 35
c-25 19 -54 39 -63 45 -15 9 -9 17 42 65 33 30 61 55 63 55 1 0 3 -45 3 -100z
m-327 -111 c21 -6 35 -14 32 -20 -13 -20 -65 -39 -90 -33 -22 6 -65 51 -65 69
0 7 63 -1 123 -16z"/>
</g>
</svg>
